<svg id="Layer_1" data-name="Layer 1" xmlns="http://www.w3.org/2000/svg" xmlns:xlink="http://www.w3.org/1999/xlink" viewBox="0 0 1200 1200"><defs><style>.cls-1{fill:url(#linear-gradient);}.cls-2{fill:#ed1c24;}.cls-3,.cls-6{fill:none;}.cls-3,.cls-4,.cls-5{stroke:red;}.cls-3,.cls-4,.cls-5,.cls-6{stroke-miterlimit:10;}.cls-4{fill:#fff;}.cls-5{fill:url(#linear-gradient-2);}.cls-6{stroke:#ed1c24;}.cls-7{fill:url(#linear-gradient-3);}.cls-8{fill:url(#linear-gradient-4);}.cls-9{fill:url(#linear-gradient-5);}</style><linearGradient id="linear-gradient" x1="640.2" y1="950.49" x2="-225.59" y2="-11.48" gradientUnits="userSpaceOnUse"><stop offset="0" stop-color="#fff"/><stop offset="0.11" stop-color="#f8f8f8"/><stop offset="0.26" stop-color="#e5e5e5"/><stop offset="0.44" stop-color="#c6c6c6"/><stop offset="0.65" stop-color="#9b9b9b"/><stop offset="0.86" stop-color="#656565"/><stop offset="1" stop-color="#3f3f3f"/></linearGradient><linearGradient id="linear-gradient-2" x1="704.58" y1="754.72" x2="923.03" y2="754.72" gradientUnits="userSpaceOnUse"><stop offset="0" stop-color="#fff"/><stop offset="1" stop-color="#3f3f3f"/></linearGradient><linearGradient id="linear-gradient-3" x1="100.5" y1="128" x2="141.5" y2="128" xlink:href="#linear-gradient-2"/><linearGradient id="linear-gradient-4" x1="100.5" y1="585" x2="141.5" y2="585" xlink:href="#linear-gradient-2"/><linearGradient id="linear-gradient-5" x1="107.5" y1="1042" x2="148.5" y2="1042" xlink:href="#linear-gradient-2"/></defs><title>Artboard 1</title><rect class="cls-1" x="-1017" y="-672" width="1833" height="1599"/><path class="cls-2" d="M69.57,18.5c0,32.23-22.89,58.35-51.12,58.35,28.23,0,51.12,26.12,51.12,58.35,0-32.23,22.89-58.35,51.12-58.35C92.46,76.85,69.57,50.73,69.57,18.5Z"/><path class="cls-2" d="M171.4,18.5c0,32.23-22.89,58.35-51.12,58.35,28.23,0,51.12,26.12,51.12,58.35,0-32.23,22.89-58.35,51.12-58.35C194.29,76.85,171.4,50.73,171.4,18.5Z"/><path class="cls-2" d="M171.4,135.3c0,32.23-22.89,58.35-51.12,58.35,28.23,0,51.12,26.12,51.12,58.35,0-32.23,22.89-58.35,51.12-58.35C194.29,193.65,171.4,167.53,171.4,135.3Z"/><path class="cls-2" d="M69.57,135.3c0,32.23-22.89,58.35-51.12,58.35,28.23,0,51.12,26.12,51.12,58.35,0-32.23,22.89-58.35,51.12-58.35C92.46,193.65,69.57,167.53,69.57,135.3Z"/><rect class="cls-3" x="874.15" y="570.84" width="235.2" height="55.78" rx="26.06" ry="26.06" transform="translate(-162 703.13) rotate(-36.29)"/><rect class="cls-3" x="982.17" y="425.83" width="226.95" height="55.78" rx="26.06" ry="26.06" transform="translate(262.8 1297.92) rotate(-67.88)"/><rect class="cls-3" x="537.98" y="600.28" width="219.32" height="55.78" rx="26.06" ry="26.06" transform="translate(981.21 1466.48) rotate(-155.82)"/><rect class="cls-3" x="505.79" y="471.45" width="226.95" height="55.78" rx="26.06" ry="26.06" transform="translate(1361.34 212.72) rotate(120)"/><path class="cls-2" d="M1122.5,261.71c-15.06,15.06-38,16.58-51.17,3.38,13.2,13.2,11.68,36.11-3.38,51.17,15.06-15.06,38-16.58,51.17-3.38C1105.92,299.68,1107.44,276.77,1122.5,261.71Z"/><path class="cls-2" d="M1170.1,309.3c-15.06,15.06-38,16.58-51.17,3.38,13.2,13.2,11.68,36.11-3.38,51.17,15.06-15.06,38-16.58,51.17-3.38C1153.52,347.28,1155,324.37,1170.1,309.3Z"/><path class="cls-2" d="M1115.5,363.9c-15.06,15.06-38,16.58-51.17,3.38,13.2,13.2,11.68,36.11-3.38,51.17,15.06-15.06,38-16.58,51.17-3.38C1098.92,401.87,1100.44,379,1115.5,363.9Z"/><path class="cls-2" d="M1067.9,316.3c-15.06,15.06-38,16.58-51.17,3.38,13.2,13.2,11.68,36.11-3.38,51.17,15.06-15.06,38-16.58,51.17-3.38C1051.33,354.27,1052.84,331.37,1067.9,316.3Z"/><rect class="cls-4" x="669.48" y="951.67" width="293.02" height="52.64"/><path class="cls-2" d="M1022.48,231c-15.06,15.06-38,16.58-51.17,3.38,13.2,13.2,11.68,36.11-3.38,51.17,15.06-15.06,38-16.58,51.17-3.38C1005.91,269,1007.42,246.06,1022.48,231Z"/><path class="cls-2" d="M1070.08,278.6c-15.06,15.06-38,16.58-51.17,3.38,13.2,13.2,11.68,36.11-3.38,51.17,15.06-15.06,38-16.58,51.17-3.38C1053.5,316.57,1055,293.66,1070.08,278.6Z"/><path class="cls-2" d="M1015.48,333.19c-15.06,15.06-38,16.58-51.17,3.38,13.2,13.2,11.68,36.11-3.38,51.17,15.06-15.06,38-16.58,51.17-3.38C998.91,371.17,1000.42,348.26,1015.48,333.19Z"/><path class="cls-2" d="M967.89,285.6c-15.06,15.06-38,16.58-51.17,3.38,13.2,13.2,11.68,36.11-3.38,51.17,15.06-15.06,38-16.58,51.17-3.38C951.31,323.57,952.82,300.66,967.89,285.6Z"/><rect class="cls-2" x="678.7" y="1019.67" width="137.74" height="14.04" rx="6.56" ry="6.56" transform="translate(-297.24 304.66) rotate(-19.29)"/><rect class="cls-2" x="811.17" y="1022.3" width="137.74" height="14.04" rx="6.56" ry="6.56" transform="translate(308.48 -198.4) rotate(15.57)"/><rect class="cls-2" x="745.82" y="993.09" width="137.74" height="16.72" rx="7.81" ry="7.81" transform="translate(-217.22 1777.2) rotate(-87.81)"/><ellipse class="cls-4" cx="816" cy="1005.19" rx="146.51" ry="29.83"/><ellipse class="cls-4" cx="816" cy="952.55" rx="146.51" ry="29.83"/><rect class="cls-2" x="784.85" y="827.53" width="59.66" height="116.81"/><ellipse class="cls-2" cx="814.68" cy="942.49" rx="29.83" ry="15.76"/><path class="cls-5" d="M923,620H704.58V849.91h0c0,.15,0,.29,0,.44,0,21.56,48.9,39,109.23,39S923,871.91,923,850.34c0-.15,0-.29,0-.44h0Z"/><ellipse class="cls-4" cx="813.8" cy="620.49" rx="109.23" ry="39.04"/><rect class="cls-2" x="783.97" y="504.68" width="59.66" height="110.54"/><ellipse class="cls-2" cx="813.8" cy="613.47" rx="29.83" ry="14.91"/><path class="cls-2" d="M698.48,653c-15.06,15.06-38,16.58-51.17,3.38,13.2,13.2,11.68,36.11-3.38,51.17,15.06-15.06,38-16.58,51.17-3.38C681.91,691,683.42,668.06,698.48,653Z"/><path class="cls-2" d="M746.08,700.6c-15.06,15.06-38,16.58-51.17,3.38,13.2,13.2,11.68,36.11-3.38,51.17,15.06-15.06,38-16.58,51.17-3.38C729.5,738.57,731,715.66,746.08,700.6Z"/><path class="cls-2" d="M691.48,755.19c-15.06,15.06-38,16.58-51.17,3.38,13.2,13.2,11.68,36.11-3.38,51.17,15.06-15.06,38-16.58,51.17-3.38C674.91,793.17,676.42,770.26,691.48,755.19Z"/><path class="cls-2" d="M643.89,707.6c-15.06,15.06-38,16.58-51.17,3.38,13.2,13.2,11.68,36.11-3.38,51.17,15.06-15.06,38-16.58,51.17-3.38C627.31,745.57,628.82,722.66,643.89,707.6Z"/><rect class="cls-4" x="741.35" y="407.74" width="145.79" height="152.53" rx="38.54" ry="38.54"/><ellipse class="cls-2" cx="691.78" cy="1088.97" rx="19.13" ry="32.46"/><ellipse class="cls-3" cx="687.47" cy="1088.97" rx="27.2" ry="32.46"/><path class="cls-2" d="M735.6,343.3c-15.06,15.06-38,16.58-51.17,3.38,13.2,13.2,11.68,36.11-3.38,51.17,15.06-15.06,38-16.58,51.17-3.38C719,381.27,720.54,358.36,735.6,343.3Z"/><path class="cls-2" d="M783.2,390.89c-15.06,15.06-38,16.58-51.17,3.38,13.2,13.2,11.68,36.11-3.38,51.17,15.06-15.06,38-16.58,51.17-3.38C766.62,428.87,768.14,406,783.2,390.89Z"/><path class="cls-2" d="M728.6,445.49c-15.06,15.06-38,16.58-51.17,3.38,13.2,13.2,11.68,36.11-3.38,51.17,15.06-15.06,38-16.58,51.17-3.38C712,483.46,713.54,460.55,728.6,445.49Z"/><path class="cls-2" d="M681,397.89c-15.06,15.06-38,16.58-51.17,3.38,13.2,13.2,11.68,36.11-3.38,51.17,15.06-15.06,38-16.58,51.17-3.38C664.43,435.87,665.94,413,681,397.89Z"/><ellipse class="cls-2" cx="814.87" cy="1110.03" rx="23.28" ry="35.97"/><ellipse class="cls-3" cx="811.61" cy="1110.03" rx="30.27" ry="35.97"/><ellipse class="cls-2" cx="939.26" cy="1090.73" rx="24.56" ry="35.97"/><ellipse class="cls-3" cx="936.41" cy="1090.73" rx="30.05" ry="35.97"/><ellipse class="cls-3" cx="826.5" cy="482" rx="31.5" ry="51"/><ellipse class="cls-3" cx="837" cy="482.5" rx="31.5" ry="51"/><ellipse class="cls-2" cx="836.5" cy="484" rx="31" ry="23.5"/><path class="cls-6" d="M1134,1099.5c-15,3-26.7,10-45.92,10-13.67,0-26.91-10-40.58-10v-360c13.44,0,20.29,9,40.58,9s30.53-12,45.92-12Z"/><path class="cls-6" d="M1132,1096.5c-15,3-26.7,10-45.92,10-13.67,0-26.91-10-40.58-10v-360c13.44,0,20.29,9,40.58,9s30.53-12,45.92-12Z"/><ellipse class="cls-3" cx="1085.27" cy="830.89" rx="26.27" ry="59.67"/><ellipse class="cls-3" cx="1094.02" cy="831.48" rx="26.27" ry="59.67"/><ellipse class="cls-2" cx="1085.5" cy="833.23" rx="25.85" ry="27.5"/><ellipse class="cls-3" cx="1085.98" cy="1008.89" rx="26.27" ry="59.67"/><ellipse class="cls-3" cx="1094.73" cy="1009.48" rx="26.27" ry="59.67"/><ellipse class="cls-2" cx="1086.22" cy="1011.23" rx="25.85" ry="27.5"/><ellipse class="cls-3" cx="120.5" cy="142.5" rx="51" ry="23"/><ellipse class="cls-3" cx="120.5" cy="128" rx="51" ry="23.5"/><ellipse class="cls-7" cx="121" cy="128" rx="20.5" ry="23.5"/><path class="cls-3" d="M74.14,266.79c0,25.38-18,46-40.26,46,22.24,0,40.26,20.58,40.26,46,0-25.38,18-46,40.26-46C92.17,312.75,74.14,292.17,74.14,266.79Z"/><path class="cls-3" d="M154.35,266.79c0,25.38-18,46-40.26,46,22.24,0,40.26,20.58,40.26,46,0-25.38,18-46,40.26-46C172.37,312.75,154.35,292.17,154.35,266.79Z"/><path class="cls-3" d="M154.35,358.79c0,25.38-18,46-40.26,46,22.24,0,40.26,20.58,40.26,46,0-25.38,18-46,40.26-46C172.37,404.75,154.35,384.17,154.35,358.79Z"/><path class="cls-3" d="M74.14,358.79c0,25.38-18,46-40.26,46,22.24,0,40.26,20.58,40.26,46,0-25.38,18-46,40.26-46C92.17,404.75,74.14,384.17,74.14,358.79Z"/><path class="cls-3" d="M87.53,266.79c0,25.38-18,46-40.26,46,22.24,0,40.26,20.58,40.26,46,0-25.38,18-46,40.26-46C105.56,312.75,87.53,292.17,87.53,266.79Z"/><path class="cls-3" d="M167.74,266.79c0,25.38-18,46-40.26,46,22.24,0,40.26,20.58,40.26,46,0-25.38,18-46,40.26-46C185.76,312.75,167.74,292.17,167.74,266.79Z"/><path class="cls-3" d="M167.74,358.79c0,25.38-18,46-40.26,46,22.24,0,40.26,20.58,40.26,46,0-25.38,18-46,40.26-46C185.76,404.75,167.74,384.17,167.74,358.79Z"/><path class="cls-3" d="M87.53,358.79c0,25.38-18,46-40.26,46,22.24,0,40.26,20.58,40.26,46,0-25.38,18-46,40.26-46C105.56,404.75,87.53,384.17,87.53,358.79Z"/><path class="cls-2" d="M69.57,475.5c0,32.23-22.89,58.35-51.12,58.35,28.23,0,51.12,26.12,51.12,58.35,0-32.23,22.89-58.35,51.12-58.35C92.46,533.85,69.57,507.73,69.57,475.5Z"/><path class="cls-2" d="M171.4,475.5c0,32.23-22.89,58.35-51.12,58.35,28.23,0,51.12,26.12,51.12,58.35,0-32.23,22.89-58.35,51.12-58.35C194.29,533.85,171.4,507.73,171.4,475.5Z"/><path class="cls-2" d="M171.4,592.3c0,32.23-22.89,58.35-51.12,58.35,28.23,0,51.12,26.12,51.12,58.35,0-32.23,22.89-58.35,51.12-58.35C194.29,650.65,171.4,624.53,171.4,592.3Z"/><path class="cls-2" d="M69.57,592.3c0,32.23-22.89,58.35-51.12,58.35,28.23,0,51.12,26.12,51.12,58.35,0-32.23,22.89-58.35,51.12-58.35C92.46,650.65,69.57,624.53,69.57,592.3Z"/><ellipse class="cls-3" cx="120.5" cy="599.5" rx="51" ry="23"/><ellipse class="cls-3" cx="120.5" cy="585" rx="51" ry="23.5"/><ellipse class="cls-8" cx="121" cy="585" rx="20.5" ry="23.5"/><path class="cls-2" d="M76.57,932.5c0,32.23-22.89,58.35-51.12,58.35,28.23,0,51.12,26.12,51.12,58.35,0-32.23,22.89-58.35,51.12-58.35C99.46,990.85,76.57,964.73,76.57,932.5Z"/><path class="cls-2" d="M178.4,932.5c0,32.23-22.89,58.35-51.12,58.35,28.23,0,51.12,26.12,51.12,58.35,0-32.23,22.89-58.35,51.12-58.35C201.29,990.85,178.4,964.73,178.4,932.5Z"/><path class="cls-2" d="M178.4,1049.3c0,32.23-22.89,58.35-51.12,58.35,28.23,0,51.12,26.12,51.12,58.35,0-32.23,22.89-58.35,51.12-58.35C201.29,1107.65,178.4,1081.53,178.4,1049.3Z"/><path class="cls-2" d="M76.57,1049.3c0,32.23-22.89,58.35-51.12,58.35,28.23,0,51.12,26.12,51.12,58.35,0-32.23,22.89-58.35,51.12-58.35C99.46,1107.65,76.57,1081.53,76.57,1049.3Z"/><ellipse class="cls-3" cx="127.5" cy="1056.5" rx="51" ry="23"/><ellipse class="cls-3" cx="127.5" cy="1042" rx="51" ry="23.5"/><ellipse class="cls-9" cx="128" cy="1042" rx="20.5" ry="23.5"/><path class="cls-3" d="M74.14,723.79c0,25.38-18,46-40.26,46,22.24,0,40.26,20.58,40.26,46,0-25.38,18-46,40.26-46C92.17,769.75,74.14,749.17,74.14,723.79Z"/><path class="cls-3" d="M154.35,723.79c0,25.38-18,46-40.26,46,22.24,0,40.26,20.58,40.26,46,0-25.38,18-46,40.26-46C172.37,769.75,154.35,749.17,154.35,723.79Z"/><path class="cls-3" d="M154.35,815.79c0,25.38-18,46-40.26,46,22.24,0,40.26,20.58,40.26,46,0-25.38,18-46,40.26-46C172.37,861.75,154.35,841.17,154.35,815.79Z"/><path class="cls-3" d="M74.14,815.79c0,25.38-18,46-40.26,46,22.24,0,40.26,20.58,40.26,46,0-25.38,18-46,40.26-46C92.17,861.75,74.14,841.17,74.14,815.79Z"/><path class="cls-3" d="M87.53,723.79c0,25.38-18,46-40.26,46,22.24,0,40.26,20.58,40.26,46,0-25.38,18-46,40.26-46C105.56,769.75,87.53,749.17,87.53,723.79Z"/><path class="cls-3" d="M167.74,723.79c0,25.38-18,46-40.26,46,22.24,0,40.26,20.58,40.26,46,0-25.38,18-46,40.26-46C185.76,769.75,167.74,749.17,167.74,723.79Z"/><path class="cls-3" d="M167.74,815.79c0,25.38-18,46-40.26,46,22.24,0,40.26,20.58,40.26,46,0-25.38,18-46,40.26-46C185.76,861.75,167.74,841.17,167.74,815.79Z"/><path class="cls-3" d="M87.53,815.79c0,25.38-18,46-40.26,46,22.24,0,40.26,20.58,40.26,46,0-25.38,18-46,40.26-46C105.56,861.75,87.53,841.17,87.53,815.79Z"/><polyline class="cls-3" points="948.92 39.03 945.54 78.8 868.78 73.89 857.78 104.38 999.09 47.63 1007.09 91.25"/><polyline class="cls-3" points="906.27 103.8 974.98 97.13 864.51 141.11 1001.3 124.34"/><polyline class="cls-3" points="934.82 91.44 960.52 186.39 908.88 169.76"/><polyline class="cls-3" points="944.65 41.83 941.28 81.6 864.52 76.68 853.51 107.17 994.83 50.42 1002.82 94.04"/><polyline class="cls-3" points="902 106.59 970.71 99.93 860.25 143.91 997.04 127.14"/><polyline class="cls-3" points="930.56 94.24 956.26 189.19 904.61 172.55"/><polyline class="cls-3" points="725.06 34.87 710.02 72.49 629.37 43.71 620.72 71.92 746.57 52.72 778.64 113.81"/><polygon class="cls-3" points="622.61 176.43 636.14 96.67 742.01 123.39 695.09 196.6 622.61 176.43"/><polyline class="cls-3" points="623.7 134.59 713.02 156.78 690.53 81.59 656.64 185.9"/><polyline class="cls-3" points="724.06 39.87 709.02 77.49 628.37 48.71 619.72 76.92 745.57 57.72 777.64 118.81"/><polygon class="cls-3" points="621.61 181.43 635.14 101.67 741.01 128.39 694.09 201.6 621.61 181.43"/><polyline class="cls-3" points="622.7 139.59 712.02 161.78 689.53 86.59 655.64 190.9"/><polyline class="cls-3" points="346.71 99.79 390.5 118.18 347 165.84 374.18 181.85"/><line class="cls-3" x1="372.51" y1="257.44" x2="398.71" y2="178.51"/><polyline class="cls-3" points="434.46 73.93 408.11 151.72 494.52 139.96 468.22 106.44"/><polygon class="cls-3" points="435.46 248.88 426.78 185.13 498.25 175.4 484.53 242.19 435.46 248.88"/><polyline class="cls-3" points="350.71 103.79 394.5 122.18 351 169.84 378.18 185.85"/><line class="cls-3" x1="376.51" y1="261.44" x2="402.71" y2="182.51"/><polyline class="cls-3" points="438.46 77.93 412.11 155.72 498.52 143.96 472.22 110.44"/><polygon class="cls-3" points="439.46 252.88 430.78 189.13 502.25 179.4 488.53 246.19 439.46 252.88"/><polyline class="cls-3" points="327 392.35 368 330.04 461.84 408.27 353.43 388.65 445.23 374.17"/><polyline class="cls-3" points="329.34 461.56 338.09 413.2 373.95 412.15 369.57 480.15 351.77 458.08"/><polyline class="cls-3" points="328.4 428.41 372.78 430.28 324.94 447.57 366.05 450.3"/><polyline class="cls-3" points="395.32 425.44 393.05 459.9 418.11 414.49 422.4 478.4 396.49 473.71"/><polyline class="cls-3" points="310.09 469.38 307.35 500.92 338.57 470.77 389.2 519.51 454.33 520.93 429.81 497.65"/><line class="cls-3" x1="386.15" y1="492.57" x2="406.1" y2="502.78"/><line class="cls-3" x1="420.41" y1="489.35" x2="467.62" y2="491.3"/><polyline class="cls-3" points="333 392.35 374 330.04 467.84 408.27 359.43 388.65 451.23 374.17"/><polyline class="cls-3" points="335.34 461.56 344.09 413.2 379.95 412.15 375.57 480.15 357.77 458.08"/><polyline class="cls-3" points="334.4 428.41 378.78 430.28 330.94 447.57 372.05 450.3"/><polyline class="cls-3" points="401.32 425.44 399.05 459.9 424.11 414.49 428.4 478.4 402.49 473.71"/><polyline class="cls-3" points="316.09 469.38 313.35 500.92 344.57 470.77 395.2 519.51 460.33 520.93 435.81 497.65"/><line class="cls-3" x1="392.15" y1="492.57" x2="412.1" y2="502.78"/><line class="cls-3" x1="426.41" y1="489.35" x2="473.62" y2="491.3"/><polyline class="cls-3" points="362.61 615.5 333.51 776 313.5 659.1 459 621.07 423.53 770.43 390.8 704.56"/><polyline class="cls-3" points="357.61 623.5 328.51 784 308.5 667.1 454 629.07 418.53 778.43 385.8 712.56"/><polygon class="cls-3" points="336.95 931.75 312.99 883.13 417.13 857.86 401.5 914.85 336.95 931.75"/><polyline class="cls-3" points="307.67 908.48 410.65 881.49 336.95 931.75"/><line class="cls-3" x1="311.06" y1="951.5" x2="451.12" y2="917.49"/><polygon class="cls-3" points="359.42 996.22 343.66 958.76 430.73 937.46 426.9 981.71 359.42 996.22"/><polyline class="cls-3" points="345.2 978.32 425.17 959.68 376.63 1017.16 436.03 1004.6 370.5 1049.5 451.5 1059.5"/><line class="cls-3" x1="381.63" y1="941.34" x2="414.5" y2="1056.5"/><polygon class="cls-3" points="340.95 933.75 316.99 885.13 421.13 859.86 405.5 916.85 340.95 933.75"/><polyline class="cls-3" points="311.67 910.48 414.65 883.49 340.95 933.75"/><line class="cls-3" x1="315.06" y1="953.5" x2="455.12" y2="919.49"/><polygon class="cls-3" points="363.42 998.22 347.66 960.76 434.73 939.46 430.9 983.71 363.42 998.22"/><polyline class="cls-3" points="349.2 980.32 429.17 961.68 380.63 1019.16 440.03 1006.6 374.5 1051.5 455.5 1061.5"/><line class="cls-3" x1="385.63" y1="943.34" x2="418.5" y2="1058.5"/><path class="cls-2" d="M338.91,1030.3c0,19.52-11.68,35.35-26.09,35.35,14.41,0,26.09,15.83,26.09,35.35,0-19.52,11.68-35.35,26.09-35.35C350.59,1065.65,338.91,1049.82,338.91,1030.3Z"/><path class="cls-2" d="M346.22,225.3c0,15.38-10.92,27.85-24.4,27.85,13.47,0,24.4,12.47,24.4,27.85,0-15.38,10.92-27.85,24.4-27.85C357.14,253.15,346.22,240.68,346.22,225.3Z"/><path class="cls-2" d="M600.22,72.3c0,15.38-10.92,27.85-24.4,27.85,13.47,0,24.4,12.47,24.4,27.85,0-15.38,10.92-27.85,24.4-27.85C611.14,100.15,600.22,87.68,600.22,72.3Z"/></svg>