<svg id="Layer_1" data-name="Layer 1" xmlns="http://www.w3.org/2000/svg" xmlns:xlink="http://www.w3.org/1999/xlink" viewBox="0 0 1200 1200"><defs><style>.cls-1{fill:#fff;stroke:#000;}.cls-1,.cls-4{stroke-miterlimit:10;}.cls-2{fill:url(#linear-gradient);}.cls-3{fill:url(#linear-gradient-2);}.cls-4{fill:none;stroke:blue;}.cls-5{fill:#6ff3c6;}</style><linearGradient id="linear-gradient" x1="95.07" y1="314.28" x2="559.81" y2="314.28" gradientUnits="userSpaceOnUse"><stop offset="0" stop-color="#fff"/><stop offset="1" stop-color="#6ff3c6"/></linearGradient><linearGradient id="linear-gradient-2" x1="706.21" y1="934.05" x2="1138.58" y2="934.05" xlink:href="#linear-gradient"/></defs><title>stars</title><rect class="cls-1" x="-233.5" y="-242.5" width="1614" height="1750"/><polygon class="cls-2" points="351.43 600.08 292.98 484.27 195.1 569.42 224.78 443.13 95.07 445.44 262.15 254.78 98.13 286.17 290.83 180.47 266.02 53.13 360.56 141.97 423.4 28.49 438.72 157.31 559.81 110.77 488.74 219.29 548.23 374.47 424.03 411.92 490.88 523.09 371.67 471.94 351.43 600.08"/><polygon class="cls-3" points="741 1061 784 986 724.14 976.84 798.95 933.11 706.21 840.73 839.3 864.86 844.2 778.91 909.48 819.84 981.6 758.71 994.2 848.23 1079.11 820.43 1028.66 894.01 1138.58 944.35 996.37 967.33 1033.7 1071.7 955 1060 878.69 1109.4 838 1052.54 741 1061"/><path class="cls-4" d="M868.5,336.5c11.76-10.84,48.75-79.21,74-85,48-11,63,7,75,38,10.17,26.27-4.35,62-12.12,89.11-8.5,29.65,3,40.87,10.12,70.89,3.93,16.57,11,51,12.14,67.95.79,11.7,23.78,93.06,27.86,104.05,36,97,137,167,104,220-9.7,15.58-32.43-2.08-45-8-34-16-42-45-50-45-4.1,0,4.66,10.47-3,12-15,3-27-6.07-36-11-11-6-36.86-46.21-48-75-17.71-45.77-47-162-26-173,12.4-6.5-32.06,110.23-50,159-9.66,26.27-38.27,45.43-62,60.31-15,9.43-34.18,12.8-46,26-6.58,7.36-10,16.9-13.89,26-32.75,77-108,134.23-190.86,145.3-29,3.88-58.57,2.48-87.45,7.2-66.76,10.9-128.21,54-195.65,48.7-5.06-.4-10.54-1.29-14-5-2.44-2.6-3.49-6.19-4.25-9.67-8.34-38,10.47-80.31,44.24-99.58,40.88-23.33,92.61-12.47,137.89-25.3,93.74-26.55,131.1-141,211.78-195.59,11.55-7.82,29.52-13.31,37.55-1.9,9.68,13.75-8.27,30-23.45,37.22L433,839.3c-36.81,17.55-74.59,35.37-115.2,39.13-49.88,4.62-99-12.37-146.18-29.1-10.76-3.81-21.94-7.9-29.78-16.18-8.78-9.28-12-22.36-14.84-34.82-7.61-33.51-10.15-77.59,20.56-93,18.25-9.17,40.72-2.77,58,8.14s31.66,26,49.31,36.28c58.37,34,132.56,7,191.65-25.72,109-60.36,303.69-206.6,308-233.51,8.52-53.06-48,62-61,82-59.35,91.31-232.77,233.39-294,209-30.1-12,55.28-80,32.43-90.22-28.43-12.78,2.74-60.47,18.57-71.78,59.5-42.48,187.71-86.94,238-140,37.46-39.52,71.4-69.75,116-101C843.79,351,856.74,347.34,868.5,336.5Z"/><polygon class="cls-4" points="194.41 1024.38 154.71 959.44 110.57 998.2 123.74 940.95 65.02 942.27 111.91 906.88 33.4 854.39 92.06 857.42 80.57 799.81 123.56 839.85 151.78 788.33 158.98 846.63 246.4 841.06 214.43 890.35 298.52 912.84 242.35 930.06 257.4 989.24 203.31 966.32 194.41 1024.38"/><polygon class="cls-4" points="523.44 1119.78 456.52 1083.53 437.78 1139.2 420.45 1083.07 370.31 1113.68 393.12 1059.54 298.87 1053.53 351.13 1026.72 312.29 982.65 369.56 995.71 368.13 936.98 403.61 983.8 476.42 935.12 473.51 993.79 557.53 971.06 517.58 1014.13 560.29 1057.77 502.01 1065.09 523.44 1119.78"/><polygon class="cls-5" points="890.93 298.14 907.9 277.58 879.17 265.63 905.53 263.74 893.88 243.2 917.65 252.77 902.77 218.52 932.5 238.52 937.76 217.3 943.51 238.09 962.18 208.13 963.15 239.52 990.96 227.82 960.02 257.08 979.94 267.08 953.49 271 973.57 286.71 954.51 282.01 955.62 308.22 939.66 293.28 934.41 314.5 928.65 293.71 913.06 309.89 916.17 291.77 890.93 298.14"/><polygon class="cls-4" points="282.71 600.31 224.27 484.5 126.4 569.65 156.07 443.36 26.36 445.68 193.45 255.01 29.42 286.4 222.12 180.7 197.31 53.37 291.85 142.2 354.69 28.72 370.01 157.54 491.1 111 420.03 219.52 479.52 374.71 355.32 412.15 422.18 523.33 302.96 472.18 282.71 600.31"/><polygon class="cls-4" points="781.51 1043.5 832.75 946.69 751.95 933.03 826.76 889.3 734.03 796.92 867.11 821.05 872.01 735.11 937.29 776.03 1009.42 714.9 1022.01 804.42 1106.92 776.63 1056.48 850.2 1166.4 900.54 1024.19 923.52 1061.52 1027.89 963.99 1013.61 906.5 1065.59 865.82 1008.73 781.51 1043.5"/></svg>